<svg width="53" height="38" viewBox="0 0 53 38" fill="none" xmlns="http://www.w3.org/2000/svg">
<path d="M8.6125 0C6.32832 0 4.1377 0.929397 2.52254 2.58374C0.907386 4.23808 0 6.48184 0 8.82143V29.1786C0 31.5182 0.907386 33.7619 2.52254 35.4163C4.1377 37.0706 6.32832 38 8.6125 38H44.3875C45.5185 38 46.6384 37.7718 47.6834 37.3285C48.7283 36.8852 49.6777 36.2354 50.4775 35.4163C51.2772 34.5971 51.9116 33.6246 52.3444 32.5544C52.7772 31.4841 53 30.337 53 29.1786V8.82143C53 7.66298 52.7772 6.51588 52.3444 5.44561C51.9116 4.37535 51.2772 3.40288 50.4775 2.58374C49.6777 1.76459 48.7283 1.11481 47.6834 0.671492C46.6384 0.228173 45.5185 0 44.3875 0H8.6125ZM11.342 14.1686L13.25 16.1229L15.158 14.1686C15.34 13.9686 15.5594 13.8081 15.8032 13.6969C16.047 13.5856 16.3102 13.5258 16.577 13.521C16.8439 13.5161 17.109 13.5664 17.3564 13.6688C17.6039 13.7712 17.8287 13.9236 18.0175 14.1169C18.2062 14.3102 18.355 14.5405 18.4549 14.7939C18.5549 15.0474 18.604 15.3189 18.5993 15.5923C18.5946 15.8656 18.5361 16.1352 18.4275 16.3849C18.3189 16.6346 18.1623 16.8593 17.967 17.0457L16.0616 19L17.9697 20.9489C18.1544 21.138 18.3011 21.3625 18.4011 21.6096C18.5012 21.8567 18.5528 22.1216 18.5529 22.3892C18.553 22.6567 18.5017 22.9217 18.4018 23.1689C18.302 23.4161 18.1556 23.6408 17.971 23.8301C17.7864 24.0193 17.5672 24.1695 17.3259 24.272C17.0846 24.3745 16.826 24.4273 16.5648 24.4275C16.3036 24.4276 16.0449 24.375 15.8035 24.2728C15.5621 24.1705 15.3428 24.0205 15.158 23.8314L13.25 21.8771L11.342 23.8314C10.9652 24.191 10.4669 24.3868 9.95202 24.3775C9.43712 24.3682 8.94585 24.1545 8.5817 23.7815C8.21756 23.4086 8.00897 22.9054 7.99989 22.378C7.9908 21.8506 8.18193 21.3402 8.533 20.9543L10.441 19L8.533 17.0457C8.18193 16.6598 7.9908 16.1494 7.99989 15.622C8.00897 15.0946 8.21756 14.5914 8.5817 14.2185C8.94585 13.8455 9.43712 13.6318 9.95202 13.6225C10.4669 13.6132 10.9652 13.809 11.342 14.1686ZM25.917 14.1686L27.825 16.1229L29.733 14.1686C29.915 13.9686 30.1344 13.8081 30.3782 13.6969C30.622 13.5856 30.8852 13.5258 31.152 13.521C31.4189 13.5161 31.684 13.5664 31.9314 13.6688C32.1789 13.7712 32.4037 13.9236 32.5925 14.1169C32.7812 14.3102 32.93 14.5405 33.0299 14.7939C33.1299 15.0474 33.179 15.3189 33.1743 15.5923C33.1696 15.8656 33.1111 16.1352 33.0025 16.3849C32.8939 16.6346 32.7373 16.8593 32.542 17.0457L30.6367 19L32.5447 20.9489C32.9175 21.3307 33.127 21.8487 33.127 22.3888C33.127 22.9289 32.9175 23.4468 32.5447 23.8287C32.1718 24.2106 31.6661 24.4252 31.1388 24.4252C30.6115 24.4252 30.1059 24.2106 29.733 23.8287L27.825 21.8771L25.917 23.8314C25.735 24.0314 25.5156 24.1919 25.2718 24.3031C25.028 24.4144 24.7648 24.4742 24.498 24.479C24.2311 24.4839 23.966 24.4336 23.7186 24.3312C23.4711 24.2288 23.2463 24.0764 23.0576 23.8831C22.8688 23.6898 22.72 23.4595 22.6201 23.2061C22.5201 22.9526 22.471 22.6811 22.4757 22.4077C22.4804 22.1344 22.5389 21.8648 22.6475 21.6151C22.7561 21.3654 22.9127 21.1407 23.108 20.9543L25.016 19L23.108 17.0457C22.7569 16.6598 22.5658 16.1494 22.5749 15.622C22.584 15.0946 22.7926 14.5914 23.1567 14.2185C23.5208 13.8455 24.0121 13.6318 24.527 13.6225C25.0419 13.6132 25.5402 13.809 25.917 14.1686ZM36.4375 25.1071C36.4375 24.5672 36.6469 24.0494 37.0196 23.6677C37.3924 23.2859 37.8979 23.0714 38.425 23.0714H43.0625C43.5896 23.0714 44.0951 23.2859 44.4679 23.6677C44.8406 24.0494 45.05 24.5672 45.05 25.1071C45.05 25.647 44.8406 26.1648 44.4679 26.5466C44.0951 26.9284 43.5896 27.1429 43.0625 27.1429H38.425C37.8979 27.1429 37.3924 26.9284 37.0196 26.5466C36.6469 26.1648 36.4375 25.647 36.4375 25.1071Z" fill="#FF3F00"/>
</svg>
