<svg width="165" height="38" viewBox="0 0 165 38" fill="none" xmlns="http://www.w3.org/2000/svg">
<path d="M8.6125 0C6.32832 0 4.1377 0.929397 2.52254 2.58374C0.907386 4.23808 0 6.48184 0 8.82143V29.1786C0 31.5182 0.907386 33.7619 2.52254 35.4163C4.1377 37.0706 6.32832 38 8.6125 38H44.3875C45.5185 38 46.6384 37.7718 47.6834 37.3285C48.7283 36.8852 49.6777 36.2354 50.4775 35.4163C51.2772 34.5971 51.9116 33.6246 52.3444 32.5544C52.7772 31.4841 53 30.337 53 29.1786V8.82143C53 7.66298 52.7772 6.51588 52.3444 5.44561C51.9116 4.37535 51.2772 3.40288 50.4775 2.58374C49.6777 1.76459 48.7283 1.11481 47.6834 0.671492C46.6384 0.228173 45.5185 0 44.3875 0H8.6125ZM11.342 14.1686L13.25 16.1229L15.158 14.1686C15.34 13.9686 15.5594 13.8081 15.8032 13.6969C16.047 13.5856 16.3102 13.5258 16.577 13.521C16.8439 13.5161 17.109 13.5664 17.3564 13.6688C17.6039 13.7712 17.8287 13.9236 18.0175 14.1169C18.2062 14.3102 18.355 14.5405 18.4549 14.7939C18.5549 15.0474 18.604 15.3189 18.5993 15.5923C18.5946 15.8656 18.5361 16.1352 18.4275 16.3849C18.3189 16.6346 18.1623 16.8593 17.967 17.0457L16.0616 19L17.9697 20.9489C18.1544 21.138 18.3011 21.3625 18.4011 21.6096C18.5012 21.8567 18.5528 22.1216 18.5529 22.3892C18.553 22.6567 18.5017 22.9217 18.4018 23.1689C18.302 23.4161 18.1556 23.6408 17.971 23.8301C17.7864 24.0193 17.5672 24.1695 17.3259 24.272C17.0846 24.3745 16.826 24.4273 16.5648 24.4275C16.3036 24.4276 16.0449 24.375 15.8035 24.2728C15.5621 24.1705 15.3428 24.0205 15.158 23.8314L13.25 21.8771L11.342 23.8314C10.9652 24.191 10.4669 24.3868 9.95202 24.3775C9.43712 24.3682 8.94585 24.1545 8.5817 23.7815C8.21756 23.4086 8.00897 22.9054 7.99989 22.378C7.9908 21.8506 8.18193 21.3402 8.533 20.9543L10.441 19L8.533 17.0457C8.18193 16.6598 7.9908 16.1494 7.99989 15.622C8.00897 15.0946 8.21756 14.5914 8.5817 14.2185C8.94585 13.8455 9.43712 13.6318 9.95202 13.6225C10.4669 13.6132 10.9652 13.809 11.342 14.1686ZM25.917 14.1686L27.825 16.1229L29.733 14.1686C29.915 13.9686 30.1344 13.8081 30.3782 13.6969C30.622 13.5856 30.8852 13.5258 31.152 13.521C31.4189 13.5161 31.684 13.5664 31.9314 13.6688C32.1789 13.7712 32.4037 13.9236 32.5925 14.1169C32.7812 14.3102 32.93 14.5405 33.0299 14.7939C33.1299 15.0474 33.179 15.3189 33.1743 15.5923C33.1696 15.8656 33.1111 16.1352 33.0025 16.3849C32.8939 16.6346 32.7373 16.8593 32.542 17.0457L30.6367 19L32.5447 20.9489C32.9175 21.3307 33.127 21.8487 33.127 22.3888C33.127 22.9289 32.9175 23.4468 32.5447 23.8287C32.1718 24.2106 31.6661 24.4252 31.1388 24.4252C30.6115 24.4252 30.1059 24.2106 29.733 23.8287L27.825 21.8771L25.917 23.8314C25.735 24.0314 25.5156 24.1919 25.2718 24.3031C25.028 24.4144 24.7648 24.4742 24.498 24.479C24.2311 24.4839 23.966 24.4336 23.7186 24.3312C23.4711 24.2288 23.2463 24.0764 23.0576 23.8831C22.8688 23.6898 22.72 23.4595 22.6201 23.2061C22.5201 22.9526 22.471 22.6811 22.4757 22.4077C22.4804 22.1344 22.5389 21.8648 22.6475 21.6151C22.7561 21.3654 22.9127 21.1407 23.108 20.9543L25.016 19L23.108 17.0457C22.7569 16.6598 22.5658 16.1494 22.5749 15.622C22.584 15.0946 22.7926 14.5914 23.1567 14.2185C23.5208 13.8455 24.0121 13.6318 24.527 13.6225C25.0419 13.6132 25.5402 13.809 25.917 14.1686ZM36.4375 25.1071C36.4375 24.5672 36.6469 24.0494 37.0196 23.6677C37.3924 23.2859 37.8979 23.0714 38.425 23.0714H43.0625C43.5896 23.0714 44.0951 23.2859 44.4679 23.6677C44.8406 24.0494 45.05 24.5672 45.05 25.1071C45.05 25.647 44.8406 26.1648 44.4679 26.5466C44.0951 26.9284 43.5896 27.1429 43.0625 27.1429H38.425C37.8979 27.1429 37.3924 26.9284 37.0196 26.5466C36.6469 26.1648 36.4375 25.647 36.4375 25.1071Z" fill="#FF3F00"/>
<path d="M77.256 21.504H75.784V28H70.408V8.128H76.904C79.1867 8.128 80.8827 8.65067 81.992 9.696C83.1013 10.7413 83.656 12.4587 83.656 14.848C83.656 17.2373 83.1333 18.944 82.088 19.968C81.0427 20.992 79.432 21.504 77.256 21.504ZM77.864 17.184C78.056 16.8213 78.152 16.1707 78.152 15.232C78.152 14.2933 78.0453 13.632 77.832 13.248C77.6187 12.864 77.192 12.672 76.552 12.672H75.784V17.728H76.68C77.2773 17.728 77.672 17.5467 77.864 17.184Z" fill="#FF3F00"/>
<path d="M96.3558 16.672L96.1957 23.296C96.1957 23.7013 96.2917 23.9787 96.4837 24.128C96.6971 24.256 97.0491 24.32 97.5397 24.32L97.0598 28.192C95.8224 28.2773 95.1397 28.32 95.0117 28.32C93.4331 28.32 92.4304 27.776 92.0038 26.688H91.8438C91.0544 27.776 89.8384 28.32 88.1957 28.32C86.9371 28.32 85.9664 27.9147 85.2838 27.104C84.6224 26.2933 84.2917 25.184 84.2917 23.776C84.2917 22.0053 84.8358 20.7787 85.9238 20.096C87.0331 19.4133 88.7717 18.9653 91.1397 18.752V17.984C91.1397 17.3867 90.8411 17.088 90.2438 17.088C89.2198 17.088 87.6197 17.3973 85.4437 18.016L84.6438 13.344C87.3744 12.64 89.6464 12.288 91.4597 12.288C93.2731 12.288 94.5424 12.64 95.2678 13.344C95.9931 14.048 96.3558 15.1573 96.3558 16.672ZM90.1797 24.576C90.9691 24.576 91.3638 24.16 91.3638 23.328V21.76C90.5744 21.8667 90.0091 22.0373 89.6677 22.272C89.3477 22.4853 89.1878 22.8587 89.1878 23.392C89.1878 24.1813 89.5184 24.576 90.1797 24.576Z" fill="#FF3F00"/>
<path d="M97.9092 17.216C97.9092 15.6587 98.3786 14.4533 99.3173 13.6C100.277 12.7253 101.589 12.288 103.253 12.288C104.917 12.288 106.603 12.5013 108.309 12.928L107.765 17.376C105.589 16.8853 104.128 16.64 103.381 16.64C102.933 16.64 102.709 16.8213 102.709 17.184C102.709 17.4187 102.955 17.632 103.445 17.824C105.152 18.4427 106.432 19.1467 107.285 19.936C108.16 20.7253 108.597 21.9093 108.597 23.488C108.597 25.0667 108.192 26.272 107.381 27.104C106.571 27.9147 105.323 28.32 103.637 28.32C101.973 28.32 100.309 28.1067 98.6452 27.68L98.9973 23.36C101.131 23.936 102.507 24.224 103.125 24.224C103.765 24.224 104.085 24.0747 104.085 23.776C104.085 23.4773 103.851 23.2427 103.381 23.072C101.483 22.3467 100.096 21.5787 99.2213 20.768C98.3466 19.936 97.9092 18.752 97.9092 17.216Z" fill="#FF3F00"/>
<path d="M108.847 17.216C108.847 15.6587 109.316 14.4533 110.255 13.6C111.215 12.7253 112.527 12.288 114.191 12.288C115.855 12.288 117.54 12.5013 119.247 12.928L118.703 17.376C116.527 16.8853 115.065 16.64 114.319 16.64C113.871 16.64 113.647 16.8213 113.647 17.184C113.647 17.4187 113.892 17.632 114.383 17.824C116.089 18.4427 117.369 19.1467 118.223 19.936C119.097 20.7253 119.535 21.9093 119.535 23.488C119.535 25.0667 119.129 26.272 118.319 27.104C117.508 27.9147 116.26 28.32 114.575 28.32C112.911 28.32 111.247 28.1067 109.583 27.68L109.935 23.36C112.068 23.936 113.444 24.224 114.063 24.224C114.703 24.224 115.023 24.0747 115.023 23.776C115.023 23.4773 114.788 23.2427 114.319 23.072C112.42 22.3467 111.033 21.5787 110.159 20.768C109.284 19.936 108.847 18.752 108.847 17.216Z" fill="#FF3F00"/>
<path d="M133.032 14.048C130.984 13.4293 129.48 13.12 128.52 13.12C127.582 13.12 126.931 13.536 126.568 14.368C126.227 15.2 126.056 16.5227 126.056 18.336C126.056 20.128 126.216 21.44 126.536 22.272C126.878 23.0827 127.56 23.488 128.584 23.488C128.883 23.488 129.459 23.4027 130.312 23.232V20.8H128.872V17.024H134.984V28H131.208L130.696 26.976H130.568C130.206 27.2747 129.918 27.4987 129.704 27.648C129.107 28.096 128.264 28.32 127.176 28.32C122.718 28.32 120.488 24.9493 120.488 18.208C120.488 14.8373 121.075 12.2667 122.248 10.496C123.422 8.704 125.395 7.808 128.168 7.808C130.387 7.808 132.296 8.14933 133.896 8.832L133.032 14.048Z" fill="#FF3F00"/>
<path d="M143.61 16.864C143.055 16.864 142.693 17.056 142.522 17.44C142.351 17.8027 142.266 18.368 142.266 19.136H145.05V18.368C145.05 17.3653 144.57 16.864 143.61 16.864ZM143.738 12.288C145.935 12.288 147.503 12.8213 148.442 13.888C149.402 14.9333 149.882 16.4373 149.882 18.4C149.882 18.656 149.807 19.808 149.658 21.856H142.362C142.362 23.456 143.098 24.256 144.57 24.256C145.274 24.256 146.65 24.0107 148.698 23.52L149.146 27.488C147.354 28.0427 145.562 28.32 143.77 28.32C141.573 28.32 139.887 27.6053 138.714 26.176C137.541 24.7253 136.954 22.7627 136.954 20.288C136.954 14.9547 139.215 12.288 143.738 12.288Z" fill="#FF3F00"/>
<path d="M156.71 13.792C157.884 12.7893 159.174 12.288 160.582 12.288C161.99 12.288 162.972 12.6187 163.526 13.28C164.102 13.92 164.39 14.8907 164.39 16.192V28H158.95V18.016C158.95 17.4827 158.716 17.216 158.246 17.216C157.649 17.216 157.148 17.3653 156.742 17.664V28H151.366V12.672H156.262L156.582 13.792H156.71Z" fill="#FF3F00"/>
</svg>
